<svg id="Layer_1" data-name="Layer 1" xmlns="http://www.w3.org/2000/svg" viewBox="0 0 461.94 436.18"><defs><style>.cls-1{fill:#15121d;}.cls-2{fill:#ff9703;}.cls-3{fill:#fdd207;}.cls-4{fill:#fcd644;}.cls-5{fill:#fbdb3f;}.cls-6{fill:#b6b8bd;}.cls-7{fill:#fecb5a;}.cls-8{fill:#121325;}</style></defs><path class="cls-1" d="M451.5,165.82a17.56,17.56,0,0,0-14.21-2.37S420.7,70.11,325,39.8c0,0,21-11.86,24.41-15.06s.52-8-11.55-12.42S270.17-9,214.39,6.28,119.86,41.8,72.6,115.72c0,0-30.2-2.5-51.88,3.37s-15.27,15.29-15.47,27,5.87,13.34,12.09,13.34c0,0-1.47,19.66,3.55,35.53a81.3,81.3,0,0,0,7,14.75c3.2,5.54,6.15,9.77,6.15,9.77s-16.22,3-26.21,13.58A26.89,26.89,0,0,0,.28,249.51c-2,23.59,7,32.05,21.74,43.17,8.34,5.58,21.54,10.75,21.54,10.75L81.3,317.64s9.34,7.51,26.31,14.36a148.31,148.31,0,0,0,15.8,5.36s-32.22,39.5-36.12,85.34c0,.07,0,.13,0,.2a12.31,12.31,0,0,0,17.38,12.16l1.09-.5c43-22.21,116.84-60.73,185.8-77.55.09,0,46.69-10.21,61.19-14.77,33.74-10.61,71.53-38.07,84.8-90.43,5.21-24.65,4.49-33.4,4.49-33.4s19.91-1.19,19.91-16.34S462.48,172.78,451.5,165.82ZM196.6,25.46c68.88-23.44,128.47-3.2,128.47-3.2L304.85,33.32,277.64,48.2c124,8.89,143.54,111.23,143.54,111.23s-88.11-33.05-141.77-35.19-128,7.24-128,7.24a56.6,56.6,0,0,0-7.87-4.4l-1-.45-.21-.09c-.42-.21-.86-.4-1.28-.58-.58-.25-1.18-.49-1.78-.72s-1.09-.44-1.65-.65-1.32-.49-2-.72-1.39-.49-2.11-.72c-2.3-.77-4.66-1.48-7-2.09-.72-.2-1.43-.37-2.11-.55l-1.07-.26q-1.08-.27-2.16-.51a5.73,5.73,0,0,0-.69-.16L118,119l-1.46-.3-2.61-.51c-.44,0-.88-.14-1.32-.21q-1.25-.24-2.46-.42l-1.21-.21a.36.36,0,0,0-.14,0l-3.43-.51-.6-.07-1.3-.18a1.43,1.43,0,0,0-.23,0l-1-.14-1-.13c-1.11-.12-2.13-.24-3.08-.33l-.84-.09-1.44-.14-.65,0c-.4,0-.79-.07-1.14-.11l-1.39-.1-.72,0-.35,0c-.21,0-.39,0-.53,0h-.3S127.75,48.88,196.6,25.46ZM213.42,224.1l-11.6-19.18,29.61-58.86,31,.75-42.41,83,23.68-65.61Zm59.7-77.29L285,148.76,240.35,228.6Zm-29.43-5.14c-21.5,0-39.62.44-53.13.88a211.7,211.7,0,0,1,99.59-2.22v1.93C277.81,141.93,262,141.65,243.69,141.67Zm-66.36-.27v5.41H174.4v5.87l-8.88-4.62H145.09v-8.62ZM16.2,134a466.93,466.93,0,0,1,69.19-3.91c36.07.89,47.79,5.16,46.54,9.24s-12.75-.76-62.62-1.43a193.39,193.39,0,0,0-48.07,5.52Zm38.64,73.55L44,191.93l23.26-46.54H94.63L61,215.21l15.46-48Zm51-60.76h5.33L79.52,213.44h-5ZM26.41,159.43a77.75,77.75,0,0,0,22.21,55.78A73.68,73.68,0,0,1,42.84,210,62.1,62.1,0,0,1,26.41,159.43ZM407.69,280.59c-.72,1.12-1.45,2.21-2.18,3.28,0,0,0,0,0,.06-1.16,1.68-2.34,3.34-3.55,4.92l-1.05,1.35c-.56.76-1.16,1.49-1.76,2.21-.17.23-.35.46-.54.67-.69.84-1.39,1.65-2.11,2.46l-1,1.14c-.67.74-1.34,1.48-2,2.18s-1.16,1.21-1.74,1.79c-1.59,1.64-3.23,3.2-4.88,4.68-.95.88-1.9,1.7-2.85,2.49-.58.53-1.17,1-1.75,1.46-1.76,1.46-3.55,2.83-5.34,4.11-1.2.86-2.39,1.71-3.61,2.5l-1.56,1-.61.39-1.46.91q-.93.58-1.83,1.11l-1.44.84c-2.09,1.2-4.2,2.32-6.29,3.36-.49.26-1,.51-1.49.74-.92.44-1.83.88-2.73,1.28-.59.28-1.19.54-1.79.79-1.14.51-2.27,1-3.39,1.44s-2.11.84-3.18,1.25c-1.23.46-2.44.89-3.67,1.32-1.07.38-2.15.73-3.2,1.09-2.62.82-5.22,1.59-7.77,2.28-1.16.32-2.3.61-3.42.88s-2,.49-3,.72l-.47.1-.25.06c-9.22,2.11-17.83,3.35-25.24,4.39l-.27,0a2.14,2.14,0,0,0-.35.06l-4,.54c-.6.07-1.2.16-1.81.27s-1.48.21-2.2.33c-2.14.32-4.11.63-5.88,1l-1.23.27c-1.3.28-2.48.58-3.52.91-.24.07-.45.14-.68.23s-.42.14-.64.23h0l0,0A416.5,416.5,0,0,0,239,356.44c-38.37,13.75-80.59,32.85-107.26,45.43-14.62,6.89-24.56,11.84-26.62,12.88l-.18.09-.22.1c.36-1.52.77-3,1.19-4.51.19-.74.4-1.49.63-2.22.42-1.45.88-2.89,1.36-4.32a156.09,156.09,0,0,1,5.62-14.65c.49-1.14,1-2.27,1.53-3.37s1.16-2.46,1.75-3.66a177.79,177.79,0,0,1,10.42-18.09c.41-.6.79-1.16,1.16-1.73.18-.24.34-.49.51-.73.58-.87,1.18-1.71,1.76-2.53,3.51-4.94,6.85-9.09,9.73-12.43l1.2-1.37c.47-.54.93-1.05,1.37-1.54l1.28-1.39c3.25-3.48,5.31-5.31,5.31-5.31a193.64,193.64,0,0,0,20.17,1.23c13.28.07,28.86-1.46,32.46-8.69,0,0-.26-4.71-4.14-5.42-8-1.44-22,3.64-48.92-.26-31.29-4.55-47.73-15.41-47.73-15.41l17.88-12.31s19.08,8.06,67.4,1.77,71.42-33.15,71.42-33.15l-5.92-7.24c-10.42,10.91-27.6,19.2-36.72,22.75s-48.49,8.4-71.35,6.57c-31.73-3.51-33.12-7.52-52.78-13.33s-32.93-2.83-33.52,1.79,18.13,10.89,18.13,10.89l-8.17,6.27S41,282.7,26,270.36c-6.43-5.28-10.68-11-9.68-16.65C19.64,235,57.08,232.85,94,232.85c25.74,0,38.25-17.57,44.37-33.34a96.73,96.73,0,0,0,4.92-18c2.6-15.16,26.28-18.25,30.55.48s9.72,38.6,36.95,56.36,62.55,11.14,62.55,11.14c75.33-6.63,70-82.91,70-82.91l82.81,19.54S437.43,234.28,407.69,280.59Z"/><path class="cls-2" d="M273.37,249.44c-12.09,65.39-71.2,80.19-71.2,80.19s-.26-4.71-4.14-5.42c-8-1.44-22,3.64-48.92-.26-31.29-4.55-47.73-15.41-47.73-15.41l17.88-12.31s19.08,8.06,67.4,1.77,71.42-33.15,71.42-33.15l-5.92-7.24c-10.42,10.91-27.6,19.2-36.72,22.75s-48.49,8.4-71.35,6.57c-31.73-3.51-33.12-7.52-52.78-13.33s-32.93-2.83-33.52,1.79,61.47,20.84,61.47,20.84l-17.88,12.31S41,282.7,26,270.36c-.77-5.58-.61-13.52,4.64-19.62,9.07-10.47,36.61-9.77,65.92-12.62,28.31-2.72,45-18.22,41.82-38.61a96.73,96.73,0,0,0,4.92-18c2.6-15.16,26.28-18.25,30.55.48s9.72,38.6,36.95,56.36S273.37,249.44,273.37,249.44Z"/><path class="cls-3" d="M421.18,159.43s-88.11-33.05-141.77-35.19-128,7.24-128,7.24a56.6,56.6,0,0,0-7.87-4.4l-1-.45-.21-.09c-.42-.21-.84-.39-1.28-.58s-1.18-.49-1.78-.72-1.09-.44-1.65-.65-1.32-.49-2-.72-1.39-.49-2.11-.72c-2.3-.77-4.66-1.48-7-2.09-.72-.2-1.43-.37-2.11-.55l-1.07-.26q-1.08-.27-2.16-.51a5.73,5.73,0,0,0-.69-.16L118,119l-1.46-.3-2.61-.51c-1.71-.32-3.39-.6-5-.84a.36.36,0,0,0-.14,0l-3.43-.51c-1.09-.16-2.16-.3-3.16-.42l-1-.13c-1.11-.12-2.13-.24-3.08-.33l-.84-.09-1.44-.14-.65,0c-.4,0-.79-.07-1.14-.11l-1.39-.1-.72,0-.35,0c-.21,0-.39,0-.53,0h-.3s37-66.49,105.89-89.91,128.47-3.2,128.47-3.2L304.85,33.32,277.64,48.2C401.64,57.09,421.18,159.43,421.18,159.43Z"/><path class="cls-3" d="M326,335.42l.47-.1c1-.23,2-.48,3-.72s2.28-.58,3.42-.88c2.55-.69,5.15-1.46,7.77-2.28,1.05-.36,2.13-.71,3.2-1.09,1.23-.43,2.44-.86,3.67-1.32,1.07-.41,2.13-.83,3.18-1.25s2.25-.93,3.39-1.44c.6-.25,1.2-.51,1.79-.79.9-.4,1.81-.84,2.73-1.28.51-.23,1-.48,1.49-.74,2.09-1,4.2-2.16,6.29-3.36l1.44-.84q.9-.52,1.83-1.11l1.46-.91.61-.39,1.56-1c1.22-.79,2.41-1.64,3.61-2.5,1.79-1.3,3.58-2.67,5.34-4.11.58-.47,1.17-1,1.75-1.46C370.23,319.05,351.2,329.29,326,335.42Zm-30.13,5.08,4-.54C298.56,340.08,297.21,340.27,295.84,340.5Z"/><path class="cls-3" d="M407.69,280.59c-.72,1.12-1.45,2.21-2.18,3.28,0,0,0,0,0,.06-1.16,1.68-2.34,3.34-3.55,4.92l-1.05,1.35c-.58.76-1.16,1.49-1.76,2.21-.17.23-.35.46-.54.67-.69.84-1.39,1.65-2.11,2.46l-1,1.14c-.67.74-1.34,1.48-2,2.18s-1.16,1.21-1.74,1.79c-1.59,1.64-3.23,3.2-4.88,4.68-.95.86-1.9,1.68-2.85,2.49-13.75,11.23-32.78,21.47-58,27.6l-.25.06c-9.22,2.11-17.83,3.35-25.24,4.39l-.27,0a2.14,2.14,0,0,0-.35.06c-1.3.12-2.65.31-4,.54-.6.07-1.2.16-1.81.27s-1.48.21-2.2.33c-2.14.32-4.11.63-5.88,1l-1.23.27c-1.3.28-2.48.58-3.52.91-.24.07-.45.14-.68.23s-.42.14-.64.23h0l0,0A416.5,416.5,0,0,0,239,356.44c-38.37,13.75-80.59,32.85-107.26,45.43a175.63,175.63,0,0,1,38-63.55c13.28.07,28.86-1.46,32.46-8.69,0,0,59.11-14.8,71.2-80.19,75.33-6.63,70-82.91,70-82.91l82.81,19.54S437.43,234.28,407.69,280.59Z"/><path class="cls-4" d="M169.71,338.32a175.63,175.63,0,0,0-38,63.55c-14.62,6.89-24.56,11.84-26.62,12.88l-.18.09-.22.1c.36-1.52.77-3,1.19-4.51l.63-2.22c.44-1.45.88-2.89,1.36-4.32a156.09,156.09,0,0,1,5.62-14.65c.49-1.14,1-2.27,1.53-3.37s1.16-2.46,1.75-3.66a177.79,177.79,0,0,1,10.42-18.09c.41-.6.79-1.16,1.16-1.73.18-.24.34-.49.51-.73.58-.87,1.18-1.71,1.76-2.53,3.51-4.94,6.85-9.09,9.73-12.43l1.2-1.37c.47-.54.93-1.05,1.37-1.54l1.28-1.39c3.25-3.48,5.31-5.31,5.31-5.31A193.64,193.64,0,0,0,169.71,338.32Z"/><path class="cls-5" d="M325.07,22.26,304.85,33.32C191.32,16.62,131.42,95.6,116.5,118.74l-2.61-.51c-1.71-.32-3.39-.6-5-.84a.36.36,0,0,0-.14,0l-3.43-.51c-1.09-.16-2.16-.3-3.16-.42l-1-.13c-1.11-.12-2.13-.24-3.08-.33l-.84-.09-1.44-.14-.65,0c-.4,0-.79-.07-1.14-.11l-1.39-.1-.72,0-.35,0c-.21,0-.39,0-.53,0h-.3s37-66.49,105.89-89.91S325.07,22.26,325.07,22.26Z"/><path class="cls-6" d="M48.62,215.21A73.68,73.68,0,0,1,42.84,210a62.1,62.1,0,0,1-16.43-50.55A77.75,77.75,0,0,0,48.62,215.21Z"/><polygon class="cls-6" points="61.04 215.21 76.5 167.25 54.84 207.57 43.99 191.93 67.26 145.39 94.63 145.39 61.04 215.21"/><polygon class="cls-6" points="111.15 146.81 79.52 213.44 74.55 213.44 105.82 146.81 111.15 146.81"/><path class="cls-6" d="M131.93,139.35c-1.23,4.09-12.75-.76-62.62-1.43a193.39,193.39,0,0,0-48.07,5.52l-5-9.42a466.93,466.93,0,0,1,69.19-3.91C121.46,131,133.18,135.27,131.93,139.35Z"/><path class="cls-7" d="M96.58,238.12c-29.31,2.85-56.85,2.15-65.92,12.62-5.25,6.1-5.41,14-4.64,19.62-6.43-5.28-10.68-11-9.68-16.65C19.64,235,57.08,232.85,94,232.85c25.74,0,38.25-17.57,44.37-33.34C141.58,219.9,124.89,235.4,96.58,238.12Z"/><polygon class="cls-6" points="177.33 141.4 177.33 146.81 174.4 146.81 174.4 152.68 165.52 148.06 145.09 148.06 145.09 139.44 177.33 141.4"/><path class="cls-6" d="M290.15,140.33v1.93c-12.34-.33-28.12-.61-46.46-.59-21.5,0-39.62.44-53.13.88a211.7,211.7,0,0,1,99.59-2.22Z"/><polygon class="cls-6" points="220.06 229.78 243.74 164.17 213.42 224.1 201.82 204.92 231.43 146.06 262.47 146.81 220.06 229.78"/><polygon class="cls-6" points="284.96 148.76 240.35 228.6 273.12 146.81 284.96 148.76"/><path class="cls-8" d="M134.93,234.63s15-16.35,23.9-16.35,11.11,24.08,0,24.08,0-19-3.55-19.55S134.93,234.63,134.93,234.63Z"/><path class="cls-3" d="M279.88,343.72c3.29-1.27,8.16-2.09,14.15-3C289.62,341.49,284.89,342.49,279.88,343.72Z"/><path class="cls-3" d="M300.48,339.87c7.41-1,16-2.28,25.24-4.39A201.81,201.81,0,0,1,300.48,339.87Z"/><path class="cls-3" d="M405.47,283.93A97.29,97.29,0,0,1,384,307.82,118.94,118.94,0,0,0,405.47,283.93Z"/><path class="cls-1" d="M359.73,324.31s29.73-18.66,28-60.25c0,0,15,28.62,12.72,40.22S359.73,324.31,359.73,324.31Z"/></svg>